<?xml version="1.0" encoding="UTF-8"?>
<svg xmlns="http://www.w3.org/2000/svg" xmlns:xlink="http://www.w3.org/1999/xlink" viewBox="0 0 948.21 154.95">
  <defs>
    <style>
      .cls-1 {
        fill: url(#linear-gradient-6);
      }

      .cls-1, .cls-2, .cls-3, .cls-4, .cls-5, .cls-6, .cls-7, .cls-8, .cls-9, .cls-10, .cls-11 {
        stroke-width: 0px;
      }

      .cls-12 {
        isolation: isolate;
      }

      .cls-2 {
        fill: url(#linear-gradient-3);
      }

      .cls-2, .cls-3, .cls-4, .cls-6, .cls-8, .cls-10 {
        mix-blend-mode: screen;
      }

      .cls-3 {
        fill: url(#linear-gradient-4);
      }

      .cls-4 {
        fill: url(#linear-gradient-2);
      }

      .cls-5 {
        fill: url(#linear-gradient-5);
      }

      .cls-6 {
        fill: url(#linear-gradient-10);
      }

      .cls-7 {
        fill: #fff;
      }

      .cls-8 {
        fill: url(#linear-gradient-7);
      }

      .cls-9 {
        fill: url(#linear-gradient-9);
      }

      .cls-10 {
        fill: url(#linear-gradient);
      }

      .cls-11 {
        fill: url(#linear-gradient-8);
      }
    </style>
    <linearGradient id="linear-gradient" x1="534.78" y1="65.58" x2="625.86" y2="65.58" gradientUnits="userSpaceOnUse">
      <stop offset="0" stop-color="#2e2e80"/>
      <stop offset="1" stop-color="#4374ba"/>
    </linearGradient>
    <linearGradient id="linear-gradient-2" x1="647.58" y1="78.3" x2="735.24" y2="78.3" xlink:href="#linear-gradient"/>
    <linearGradient id="linear-gradient-3" x1="748.64" y1="93.89" x2="850.28" y2="93.89" xlink:href="#linear-gradient"/>
    <linearGradient id="linear-gradient-4" x1="863.53" y1="78.38" x2="948.21" y2="78.38" xlink:href="#linear-gradient"/>
    <linearGradient id="linear-gradient-5" x1="-1744.09" y1="-294.53" x2="-1794.98" y2="-345.42" gradientTransform="translate(472.44 -1672.12) rotate(-90)" xlink:href="#linear-gradient"/>
    <linearGradient id="linear-gradient-6" x1="-1683.91" y1="-269.48" x2="-1735.94" y2="-321.5" gradientTransform="translate(472.44 -1672.12) rotate(-90)" gradientUnits="userSpaceOnUse">
      <stop offset="0" stop-color="#2e2e80"/>
      <stop offset="1" stop-color="#170f26"/>
    </linearGradient>
    <linearGradient id="linear-gradient-7" x1="-1772.17" y1="-280.87" x2="-1772.17" y2="-340.69" gradientTransform="translate(472.44 -1672.12) rotate(-90)" xlink:href="#linear-gradient"/>
    <linearGradient id="linear-gradient-8" x1="-1744.09" y1="-4290.76" x2="-1794.98" y2="-4341.65" gradientTransform="translate(-4056.82 -1672.12) rotate(-90) scale(1 -1)" xlink:href="#linear-gradient"/>
    <linearGradient id="linear-gradient-9" x1="-1683.91" y1="-4265.71" x2="-1735.94" y2="-4317.73" gradientTransform="translate(-4056.82 -1672.12) rotate(-90) scale(1 -1)" xlink:href="#linear-gradient-6"/>
    <linearGradient id="linear-gradient-10" x1="-1772.17" y1="-4277.1" x2="-1772.17" y2="-4336.92" gradientTransform="translate(-4056.82 -1672.12) rotate(-90) scale(1 -1)" xlink:href="#linear-gradient"/>
  </defs>
  <g class="cls-12">
    <g id="Layer_2" data-name="Layer 2">
      <g id="Layer_1-2" data-name="Layer 1">
        <g>
          <path class="cls-7" d="m57.74,24.06c-4.47,0-8.43.89-11.91,2.68-3.47,1.79-6.38,4.44-8.71,7.96-2.33,3.52-4.09,7.94-5.28,13.25-1.19,5.31-1.79,11.53-1.79,18.68s.62,13.69,1.86,19.05c1.24,5.36,3.07,9.75,5.51,13.17,2.43,3.42,5.48,6,9.15,7.74,3.67,1.74,7.98,2.6,12.95,2.6,5.95,0,10.96-1.19,15.03-3.57,4.07-2.38,7.42-5.66,10.05-9.82,2.63-4.17,4.69-9.03,6.18-14.58l11.76,5.06c-1.99,7.34-4.96,13.69-8.93,19.05-3.97,5.36-9.06,9.48-15.25,12.35-6.2,2.88-13.72,4.32-22.55,4.32s-16.05-1.22-22.85-3.65c-6.8-2.43-12.68-6.03-17.64-10.79-4.96-4.76-8.76-10.57-11.38-17.41-2.63-6.85-3.94-14.68-3.94-23.51s1.36-16.84,4.09-23.74c2.73-6.89,6.55-12.7,11.46-17.41,4.91-4.71,10.64-8.28,17.19-10.71,6.55-2.43,13.59-3.65,21.13-3.65s14.04,1.34,19.2,4.02c5.16,2.68,9.28,6.42,12.35,11.24,3.07,4.81,5.26,10.54,6.55,17.19l-6.85-4.61,2.83-25.9h12.95v36.02h-15.03c-1.49-5.06-3.5-9.47-6.03-13.25-2.53-3.77-5.61-6.67-9.23-8.71-3.62-2.03-7.91-3.05-12.87-3.05Z"/>
          <path class="cls-7" d="m347.26,36.63c5.06,0,9.52.87,13.39,2.6,3.87,1.74,7.29,4.27,10.27,7.59,2.98,3.33,5.46,7.42,7.44,12.28l-.6,10.72c-2.58-4.27-5.01-7.76-7.29-10.49-2.28-2.73-4.66-4.79-7.14-6.18-2.48-1.39-5.31-2.08-8.48-2.08-2.98,0-5.56.6-7.74,1.79-2.18,1.19-4.02,2.98-5.51,5.36-1.49,2.38-2.58,5.33-3.27,8.85-.7,3.52-1.04,7.57-1.04,12.13s.3,8.36.89,11.68c.6,3.33,1.56,6.08,2.9,8.26,1.34,2.18,3.03,3.82,5.06,4.91,2.03,1.09,4.49,1.64,7.37,1.64,3.17,0,6.03-.69,8.56-2.08,2.53-1.39,5.03-3.62,7.52-6.7,2.48-3.07,5.21-7.09,8.18-12.05l.3,11.01c-2.48,5.16-5.21,9.55-8.18,13.17-2.98,3.62-6.45,6.38-10.42,8.26-3.97,1.88-8.63,2.83-13.99,2.83-7.74,0-14.29-1.69-19.65-5.06-5.36-3.37-9.45-8.13-12.28-14.29-2.83-6.15-4.24-13.34-4.24-21.58s1.54-15.7,4.61-22.1c3.07-6.4,7.44-11.41,13.1-15.03,5.66-3.62,12.4-5.43,20.24-5.43Zm52.39,66.23c0,1.59.69,2.66,2.08,3.2,1.39.55,3.37,1.07,5.95,1.56l1.19.15v10.72h-33.19l-2.08-18.31-1.04,1.34V21.75c0-.99-.32-1.79-.97-2.38-.65-.6-1.56-1.07-2.75-1.41-1.19-.35-2.68-.72-4.46-1.12l-1.49-.3V5.68h36.76v97.18Z"/>
          <path class="cls-7" d="m454.12,78.75c0,5.26.49,9.72,1.49,13.39.99,3.67,2.46,6.62,4.39,8.86,1.93,2.23,4.34,3.87,7.22,4.91,2.88,1.04,6.25,1.56,10.12,1.56s7.27-.6,10.19-1.79c2.92-1.19,5.51-2.78,7.74-4.76,2.23-1.98,4.19-4.22,5.88-6.7l9.82,7.59c-2.28,3.77-5.16,7.05-8.63,9.82-3.47,2.78-7.57,4.91-12.28,6.4-4.71,1.49-10.19,2.23-16.45,2.23-9.52,0-17.78-1.59-24.78-4.76-6.99-3.17-12.35-7.84-16.07-13.99-3.72-6.15-5.58-13.69-5.58-22.62s1.81-15.97,5.43-22.32c3.62-6.35,8.73-11.28,15.33-14.81,6.6-3.52,14.26-5.28,22.99-5.28,7.04,0,13.1.97,18.16,2.9,5.06,1.94,9.28,4.84,12.65,8.71,3.37,3.87,5.9,8.71,7.59,14.51,1.69,5.8,2.53,12.58,2.53,20.31h-64.29v-10.42h42.56l-3.57,4.02c-.1-5.46-.47-9.99-1.12-13.62-.65-3.62-1.54-6.47-2.68-8.56-1.14-2.08-2.66-3.57-4.54-4.47-1.89-.89-4.17-1.34-6.85-1.34s-5.09.52-7.22,1.56c-2.13,1.04-3.94,2.73-5.43,5.06-1.49,2.33-2.63,5.43-3.42,9.3-.8,3.87-1.19,8.63-1.19,14.29Z"/>
          <path class="cls-10" d="m582.55,108.81c4.27,0,7.76-.47,10.49-1.41,2.73-.94,4.79-2.43,6.18-4.46,1.39-2.03,2.08-4.69,2.08-7.96,0-2.88-.67-5.26-2.01-7.14-1.34-1.88-3.27-3.5-5.8-4.84s-5.61-2.53-9.23-3.57c-3.62-1.04-7.76-2.11-12.43-3.2-4.56-1.19-8.91-2.58-13.02-4.17-4.12-1.59-7.79-3.62-11.01-6.1-3.22-2.48-5.73-5.66-7.52-9.52-1.79-3.87-2.68-8.73-2.68-14.58,0-6.94,1.59-12.75,4.76-17.41,3.17-4.66,7.61-8.21,13.32-10.64,5.7-2.43,12.38-3.65,20.02-3.65,6.65,0,12.25.92,16.82,2.75,4.56,1.84,8.33,4.74,11.31,8.71,2.98,3.97,5.21,9.18,6.7,15.63l-6.25-5.06,2.98-20.09h11.91v30.21h-13.84c-1.29-4.26-3.2-7.89-5.73-10.86-2.53-2.98-5.58-5.23-9.15-6.77-3.57-1.54-7.59-2.31-12.05-2.31-3.97,0-7.19.5-9.67,1.49-2.48.99-4.29,2.41-5.43,4.24-1.14,1.84-1.71,4.14-1.71,6.92s.62,5.04,1.86,6.77c1.24,1.74,3.05,3.18,5.43,4.32,2.38,1.14,5.28,2.16,8.71,3.05,3.42.89,7.27,1.84,11.53,2.83,4.86,1.09,9.5,2.41,13.91,3.94,4.41,1.54,8.33,3.55,11.76,6.03,3.42,2.48,6.13,5.63,8.11,9.45,1.98,3.82,2.98,8.61,2.98,14.36,0,7.64-1.64,14.09-4.91,19.35-3.27,5.26-7.99,9.23-14.14,11.91-6.15,2.68-13.54,4.02-22.17,4.02-6.85,0-13.05-.94-18.6-2.83-5.56-1.88-10.22-5.06-13.99-9.52-3.77-4.47-6.5-10.52-8.19-18.16l6.25,4.76-2.98,23.51h-12.35v-34.53h14.88c1.79,5.56,4.27,10.17,7.44,13.84,3.17,3.67,6.92,6.38,11.24,8.11,4.32,1.74,9.05,2.6,14.21,2.6Z"/>
          <path class="cls-4" d="m701.76,69.82v9.52c-4.67.7-8.68,1.49-12.06,2.38-3.37.89-6.15,1.91-8.33,3.05-2.18,1.14-3.9,2.36-5.13,3.65-1.24,1.29-2.11,2.7-2.6,4.24-.5,1.54-.74,3.2-.74,4.99,0,2.48.42,4.49,1.27,6.03.84,1.54,2.03,2.66,3.57,3.35,1.54.7,3.35,1.04,5.43,1.04,2.38,0,4.59-.52,6.62-1.56,2.03-1.04,4.04-2.65,6.03-4.84,1.98-2.18,3.97-4.96,5.95-8.33l1.19,8.19c-2.08,4.17-4.52,7.62-7.29,10.34-2.78,2.73-5.98,4.79-9.6,6.18-3.62,1.39-7.76,2.08-12.43,2.08-5.56,0-10.27-.74-14.14-2.23-3.87-1.49-6.82-3.79-8.86-6.92-2.03-3.13-3.05-7.07-3.05-11.83,0-4.27.97-7.96,2.9-11.09,1.93-3.13,5.03-5.83,9.3-8.11,4.26-2.28,9.85-4.24,16.74-5.88,6.89-1.64,15.3-3.05,25.23-4.24Zm.6,48.67l-1.79-16.37-1.19.15v-42.56c0-2.58-.4-4.69-1.19-6.32-.8-1.64-2.11-2.85-3.94-3.65-1.84-.79-4.39-1.19-7.67-1.19-4.66,0-8.56.67-11.68,2.01-3.13,1.34-5.43,2.85-6.92,4.54-.6-.69-.89-1.46-.89-2.31s.27-1.66.82-2.46c.54-.79,1.39-1.46,2.53-2.01,1.14-.54,2.5-.87,4.09-.97v17.26h-21.88v-18.6c1.79-1.19,4.34-2.5,7.66-3.94,3.32-1.44,7.42-2.73,12.28-3.87,4.86-1.14,10.47-1.71,16.82-1.71,5.66,0,10.74.52,15.25,1.56,4.51,1.04,8.36,2.6,11.53,4.69,3.17,2.08,5.6,4.79,7.29,8.11,1.69,3.32,2.53,7.27,2.53,11.83v40.18c0,.99.3,1.79.89,2.38s1.49,1.04,2.68,1.34c1.19.3,2.63.65,4.32,1.04l1.34.15v10.72h-32.89Z"/>
          <path class="cls-2" d="m783.16,154.95c-7.44,0-13.74-.55-18.9-1.64-5.16-1.09-9.05-2.88-11.68-5.36-2.63-2.48-3.94-5.76-3.94-9.82,0-2.88.82-5.38,2.46-7.52,1.64-2.13,4.24-4.02,7.81-5.66,3.57-1.64,8.19-3.15,13.84-4.54l5.21,3.27c-2.28,1.29-4.07,2.53-5.36,3.72-1.29,1.19-2.21,2.43-2.75,3.72-.55,1.29-.82,2.73-.82,4.32,0,1.88.62,3.47,1.86,4.76,1.24,1.29,3.22,2.26,5.95,2.9,2.73.64,6.32.97,10.79.97h14.44c5.16,0,9.35-.42,12.58-1.27,3.22-.84,5.6-2.11,7.14-3.79,1.54-1.69,2.31-3.72,2.31-6.1,0-2.08-.67-3.67-2.01-4.76-1.34-1.09-3.7-1.64-7.07-1.64h-44.2l1.04-1.93c-3.87-.7-7.14-1.81-9.82-3.35-2.68-1.54-4.71-3.47-6.1-5.8-1.39-2.33-2.08-5.08-2.08-8.26s.92-6.23,2.75-8.86c1.83-2.63,4.47-5.03,7.89-7.22,3.42-2.18,7.52-4.07,12.28-5.66l7.29,2.98c-2.38,1.29-4.32,2.51-5.8,3.65-1.49,1.14-2.58,2.26-3.27,3.35-.7,1.09-1.04,2.28-1.04,3.57,0,1.99.72,3.4,2.16,4.24,1.44.84,3.69,1.26,6.77,1.26h34.68c6.35,0,11.66.8,15.92,2.38,4.27,1.59,7.49,3.97,9.67,7.14,2.18,3.18,3.27,7.19,3.27,12.05,0,6.45-1.81,11.83-5.43,16.15-3.62,4.32-8.68,7.52-15.18,9.6-6.5,2.08-13.97,3.13-22.4,3.13h-20.24Zm12.5-62.21c-7.84,0-14.61-1.14-20.31-3.42-5.71-2.28-10.1-5.51-13.17-9.67-3.08-4.17-4.61-9.08-4.61-14.73s1.56-10.76,4.69-15.03c3.13-4.26,7.54-7.56,13.25-9.9,5.7-2.33,12.43-3.5,20.17-3.5s14.63,1.17,20.39,3.5c5.75,2.33,10.19,5.63,13.32,9.9,3.13,4.27,4.69,9.28,4.69,15.03s-1.56,10.57-4.69,14.73c-3.12,4.17-7.57,7.39-13.32,9.67-5.76,2.28-12.55,3.42-20.39,3.42Zm0-10.57c2.98,0,5.43-.6,7.37-1.79,1.93-1.19,3.37-3.05,4.32-5.58.94-2.53,1.41-5.78,1.41-9.75s-.47-7.39-1.41-9.97c-.94-2.58-2.38-4.49-4.32-5.73-1.93-1.24-4.39-1.86-7.37-1.86s-5.28.62-7.22,1.86c-1.93,1.24-3.37,3.15-4.32,5.73-.94,2.58-1.41,5.9-1.41,9.97s.47,7.22,1.41,9.75c.94,2.53,2.38,4.39,4.32,5.58,1.93,1.19,4.34,1.79,7.22,1.79Zm54.62-29.62c-4.07-.6-7.67-1.04-10.79-1.34-3.13-.3-5.9-.42-8.33-.37-2.43.05-4.79.32-7.07.82l-3.12.3c1.59-3.47,3.27-6.47,5.06-9,1.79-2.53,3.82-4.59,6.1-6.18,2.28-1.59,4.91-2.7,7.89-3.35,2.98-.64,6.4-.77,10.27-.37v19.5Z"/>
          <path class="cls-3" d="m890.47,78.75c0,5.26.49,9.72,1.49,13.39.99,3.67,2.46,6.62,4.39,8.86,1.93,2.23,4.34,3.87,7.22,4.91,2.88,1.04,6.25,1.56,10.12,1.56s7.27-.6,10.19-1.79c2.92-1.19,5.51-2.78,7.74-4.76,2.23-1.98,4.19-4.22,5.88-6.7l9.82,7.59c-2.28,3.77-5.16,7.05-8.63,9.82-3.47,2.78-7.57,4.91-12.28,6.4-4.71,1.49-10.19,2.23-16.45,2.23-9.52,0-17.78-1.59-24.78-4.76-6.99-3.17-12.35-7.84-16.07-13.99-3.72-6.15-5.58-13.69-5.58-22.62s1.81-15.97,5.43-22.32c3.62-6.35,8.73-11.28,15.33-14.81,6.6-3.52,14.26-5.28,22.99-5.28,7.04,0,13.1.97,18.16,2.9,5.06,1.94,9.28,4.84,12.65,8.71,3.37,3.87,5.9,8.71,7.59,14.51,1.69,5.8,2.53,12.58,2.53,20.31h-64.29v-10.42h42.56l-3.57,4.02c-.1-5.46-.47-9.99-1.12-13.62-.65-3.62-1.54-6.47-2.68-8.56-1.14-2.08-2.66-3.57-4.54-4.47-1.89-.89-4.17-1.34-6.85-1.34s-5.09.52-7.22,1.56c-2.13,1.04-3.94,2.73-5.43,5.06-1.49,2.33-2.63,5.43-3.42,9.3-.8,3.87-1.19,8.63-1.19,14.29Z"/>
          <g>
            <g>
              <path class="cls-5" d="m173.35,56.58l19.95-19.95c8.38-8.38,8.38-21.97,0-30.35h0c-8.38-8.38-21.97-8.38-30.35,0l-41.79,41.79c-13.08,13.08-13.08,34.29,0,47.37l41.79,41.79c8.38,8.38,21.97,8.38,30.35,0h0c8.38-8.38,8.38-21.97,0-30.35l-19.95-19.95c-8.38-8.38-8.38-21.97,0-30.35Z"/>
              <path class="cls-1" d="m193.3,6.28c-8.38-8.38-21.97-8.38-30.35,0l-4.21,4.21c-17.07,17.07-17.07,44.75,0,61.82l14.61,14.61c-8.38-8.38-8.38-21.97,0-30.35l19.95-19.95c8.38-8.38,8.38-21.97,0-30.35h0Z"/>
              <path class="cls-8" d="m193.3,137.23c-8.38,8.38-21.97,8.38-30.35,0l-4.21-4.21c-17.07-17.07-17.07-44.75,0-61.82l14.61-14.61c-8.38,8.38-8.38,21.97,0,30.35l19.95,19.95c8.38,8.38,8.38,21.97,0,30.35h0Z"/>
            </g>
            <g>
              <path class="cls-11" d="m238.5,56.58l-19.95-19.95c-8.38-8.38-8.38-21.97,0-30.35h0c8.38-8.38,21.97-8.38,30.35,0l41.79,41.79c13.08,13.08,13.08,34.29,0,47.37l-41.79,41.79c-8.38,8.38-21.97,8.38-30.35,0h0c-8.38-8.38-8.38-21.97,0-30.35l19.95-19.95c8.38-8.38,8.38-21.97,0-30.35Z"/>
              <path class="cls-9" d="m218.55,6.28c8.38-8.38,21.97-8.38,30.35,0l4.21,4.21c17.07,17.07,17.07,44.75,0,61.82l-14.61,14.61c8.38-8.38,8.38-21.97,0-30.35l-19.95-19.95c-8.38-8.38-8.38-21.97,0-30.35h0Z"/>
              <path class="cls-6" d="m218.55,137.23c8.38,8.38,21.97,8.38,30.35,0l4.21-4.21c17.07-17.07,17.07-44.75,0-61.82l-14.61-14.61c8.38,8.38,8.38,21.97,0,30.35l-19.95,19.95c-8.38,8.38-8.38,21.97,0,30.35h0Z"/>
            </g>
          </g>
        </g>
      </g>
    </g>
  </g>
</svg>